<svg width="43" height="42" viewBox="0 0 43 42" fill="none" xmlns="http://www.w3.org/2000/svg">
<circle cx="21.5" cy="20.5" r="20" stroke="black"/>
<path d="M18.4206 40.5601C19.1244 40.2082 17.8047 37.9206 18.2446 37.0408C18.6845 36.161 20.7378 36.3336 22.3798 36.161C24.02 35.9885 26.339 36.3369 26.603 36.161C26.8669 35.985 27.2082 35.8082 27.5708 35.5451C28.6131 34.7886 28.9231 34.055 29.8583 33.1695C30.654 32.4162 31.794 32.0258 31.9699 31.3219C32.1459 30.618 30.4742 27.6266 30.6502 27.2747C30.8262 26.9228 31.618 26.4829 31.618 26.4829C31.618 26.4829 32.9377 24.9871 32.6738 24.5472C32.4098 24.1073 32.4727 24.2672 32.4098 24.1073C32.2816 23.7812 32.678 23.6535 32.5858 23.3155C32.5206 23.0764 32.3208 23.0196 32.2339 22.7876C32.1606 22.5918 32.2002 22.4227 32.1459 22.2597C32.0244 21.8952 31.442 22.0837 31.3541 21.9077C31.2661 21.7318 31.5258 21.4185 31.3541 21.2039C31.1394 20.9356 30.4742 21.2039 30.4742 21.2039L28.7146 22.7876C28.7146 22.7876 28.0715 23.4777 27.8347 24.0193C27.5155 24.7496 27.8347 25.691 27.5708 26.0429C27.3068 26.3949 27.2189 26.2189 26.9549 26.4829C26.691 26.7468 26.4823 27.7039 25.8111 28.0665C25.3783 28.3004 25.4592 28.2425 24.5794 28.5944C23.6995 28.9464 22.9957 29.2983 22.9957 29.2983C22.9957 29.2983 22.364 29.5906 21.9399 29.5623C21.4942 29.5325 21.3002 29.2847 20.8841 29.1223C19.2836 28.498 16.9249 28.1545 16.6609 27.8906C16.397 27.6266 16.045 26.0429 16.045 26.0429C16.045 26.0429 15.7811 25.4271 15.3412 25.0751C14.9013 24.7232 13.0536 24.7232 12.5257 24.3713C11.9978 24.0193 14.2854 23.4914 14.3734 22.6996C14.4614 21.9077 14.8133 20.412 15.0772 20.0601C15.3412 19.7082 14.7253 19.1803 15.3412 19.1803C15.9571 19.1803 15.3412 17.9485 14.9892 17.5966C14.6373 17.2447 15.3412 15.573 15.3412 15.573C15.3412 15.573 15.5171 14.2532 14.1974 12.4056C12.8777 10.558 11.5579 9.8541 9.44633 9.8541C7.33474 9.8541 5.57508 10.9979 5.57508 10.9979C5.57508 10.9979 4.11026 12.2861 3.72744 13.5494C3.4285 14.5359 3.35974 15.528 3.55148 16.5408C3.76633 17.6756 4.60727 19.0043 4.60727 19.0043C4.60727 19.0043 4.97476 19.9627 4.60727 20.3241C4.39795 20.5299 4.16735 20.3241 3.90341 20.588C3.63947 20.8519 3.36027 21.8318 2.84762 22.5236C2.42787 23.0901 1.52787 23.8434 1.43988 24.0193" stroke="black"/>
<path d="M24.5283 28.4896C24.1809 27.4506 24.1332 26.3304 24.3909 25.2641C24.6486 24.1978 25.2007 23.2309 25.9806 22.4797C26.7606 21.7285 27.7352 21.2252 28.7871 21.0303C29.8389 20.8354 30.9232 20.9573 31.9092 21.3812C32.8952 21.8052 33.741 22.5131 34.3446 23.4198C34.9483 24.3265 35.284 25.3933 35.3114 26.4916C35.3389 27.59 35.0568 28.673 34.4992 29.6104C33.9416 30.5477 32.4056 31.5503 31.442 32.0257" stroke="black"/>
<path d="M21.676 29.5252C19.5378 27.7109 18.4818 25.4642 17.9444 22.662C17.407 19.8599 17.8278 16.9522 19.1352 14.4343C20.4426 11.9164 22.5556 9.9442 25.1142 8.85366C27.6728 7.76313 30.5188 7.62175 33.1671 8.45363C35.8154 9.28551 38.1023 11.0392 39.638 13.4158C41.1737 15.7924 41.8633 18.645 41.5893 21.4874C41.3152 24.3299 40.0945 26.9864 38.1351 29.0042C36.1757 31.0221 33.5988 32.2765 30.8435 32.5537" stroke="black"/>
<path d="M39.7125 13.8132H23.8755C23.8755 13.8132 27.2538 18.1567 29.4185 20.9399M39.7125 13.8132C39.7125 13.8132 35.3153 10.6261 32.4979 8.35837C31.5848 12.0348 31.0728 14.096 30.1598 17.7725M39.7125 13.8132L31.97 19.2389M29.4185 20.9399C29.708 19.7029 29.8703 19.0094 30.1598 17.7725M29.4185 20.9399C30.4149 20.2756 31.97 19.2389 31.97 19.2389M30.1598 17.7725C31.53 18.0365 31.97 19.2389 31.97 19.2389" stroke="black"/>
</svg>
