<svg width="71" height="71" viewBox="0 0 71 71" fill="none" xmlns="http://www.w3.org/2000/svg">
<path d="M31.4969 0C30.7311 0 30.1102 0.620834 30.1102 1.38672V9.9382C30.1102 10.7039 30.7311 11.3249 31.4969 11.3249C32.2628 11.3249 32.8837 10.7041 32.8837 9.9382V1.38672C32.8837 0.620834 32.2628 0 31.4969 0Z" fill="black"/>
<path d="M49.6961 18.2029H41.1447C40.3788 18.2029 39.7579 18.8237 39.7579 19.5896C39.7579 20.3555 40.3788 20.9763 41.1447 20.9763H49.6961C50.462 20.9763 51.0829 20.3555 51.0829 19.5896C51.0829 18.8237 50.462 18.2029 49.6961 18.2029Z" fill="black"/>
<path d="M21.8454 18.1992H13.2941C12.5282 18.1992 11.9073 18.82 11.9073 19.5859C11.9073 20.3518 12.5282 20.9726 13.2941 20.9726H21.8455C22.6113 20.9726 23.2321 20.3518 23.2321 19.5859C23.2321 18.82 22.6113 18.1992 21.8454 18.1992Z" fill="black"/>
<path d="M24.6367 10.7655L20.5993 6.72808C20.0578 6.18657 19.1797 6.18657 18.6381 6.72808C18.0966 7.26959 18.0966 8.14766 18.6381 8.68932L22.6756 12.7267C22.9465 12.9976 23.3013 13.1329 23.6562 13.1329C24.011 13.1329 24.366 12.9976 24.6367 12.7267C25.1782 12.1852 25.1782 11.3072 24.6367 10.7655Z" fill="black"/>
<path d="M44.3546 6.73072C43.8131 6.18921 42.9351 6.18921 42.3934 6.73072L38.356 10.7682C37.8145 11.3097 37.8145 12.1877 38.356 12.7294C38.6268 13.0002 38.9818 13.1356 39.3367 13.1356C39.6915 13.1356 40.0465 13.0002 40.3172 12.7294L44.3546 8.69196C44.8962 8.15044 44.8962 7.27237 44.3546 6.73072Z" fill="black"/>
<path d="M53.9618 31.5764C53.0256 31.5764 52.1481 31.8296 51.3916 32.2694C50.7612 30.1493 48.7956 28.5983 46.4735 28.5983C44.9976 28.5983 43.6664 29.2255 42.7294 30.2263C41.7925 29.2255 40.461 28.5983 38.9852 28.5983C38.1356 28.5983 37.3343 28.8071 36.6278 29.1742V19.5877C36.6278 16.7585 34.3261 14.4568 31.4969 14.4568C28.6678 14.4568 26.3661 16.7585 26.3661 19.5877V26.8994C26.3661 27.6653 26.9869 28.2861 27.7528 28.2861C28.5187 28.2861 29.1395 27.6653 29.1395 26.8994V19.5877C29.1395 18.2878 30.197 17.2303 31.4969 17.2303C32.7969 17.2303 33.8544 18.2878 33.8544 19.5877V42.8025C33.8544 43.5683 34.4752 44.1892 35.2411 44.1892C36.007 44.1892 36.6278 43.5683 36.6278 42.8025V33.7292C36.6278 32.4292 37.6853 31.3717 38.9852 31.3717C40.2851 31.3717 41.3427 32.4292 41.3427 33.7292V35.0675V42.8025C41.3427 43.5683 41.9635 44.1892 42.7294 44.1892C43.4953 44.1892 44.1161 43.5683 44.1161 42.8025V35.0675V33.7292C44.1161 32.4292 45.1736 31.3717 46.4735 31.3717C47.7734 31.3717 48.8309 32.4292 48.8309 33.7292V36.7071V39.1055V42.8026C48.8309 43.5685 49.4518 44.1893 50.2177 44.1893C50.9835 44.1893 51.6044 43.5685 51.6044 42.8026V39.1055V36.7071C51.6044 35.4072 52.6619 34.3497 53.9618 34.3497C55.2617 34.3497 56.3192 35.4072 56.3192 36.7071V51.2086C56.3192 52.2416 56.2262 53.2758 56.0424 54.2825C55.905 55.0361 56.4044 55.7581 57.1578 55.8956C57.2419 55.9108 57.3256 55.9183 57.4082 55.9183C58.0652 55.9183 58.6488 55.4495 58.7709 54.7801C58.9843 53.6096 59.0927 52.408 59.0927 51.2085V36.7071C59.0927 33.8781 56.791 31.5764 53.9618 31.5764Z" fill="black"/>
<path d="M52.8672 63.7229C52.3449 63.163 51.4672 63.1326 50.9074 63.655C47.7473 66.603 43.6255 68.2266 39.3011 68.2266C32.8134 68.2266 26.7982 64.4516 23.9768 58.6094L17.5891 45.3831C17.0129 44.1903 17.4604 42.737 18.6077 42.0746C19.7939 41.39 21.3383 41.7842 22.051 42.9535L26.5688 50.3662C26.8923 50.8969 27.5294 51.1476 28.1278 50.9797C28.7261 50.8117 29.1397 50.2661 29.1397 49.6445V36.0547C29.1397 35.2888 28.5188 34.668 27.7529 34.668C26.9871 34.668 26.3662 35.2888 26.3662 36.0547V44.7046L24.4193 41.5102C22.9041 39.0241 19.7421 38.217 17.2209 39.6728C14.8226 41.0574 13.8873 44.0956 15.0918 46.5893L21.4794 59.8156C23.0999 63.171 25.6247 65.9916 28.7809 67.9722C31.9371 69.953 35.575 71 39.3013 71C44.3303 71 49.1239 69.1117 52.7993 65.6829C53.3593 65.1604 53.3898 64.283 52.8672 63.7229Z" fill="black"/>
<path d="M56.455 59.0187C56.197 58.7608 55.8393 58.6124 55.4745 58.6124C55.1098 58.6124 54.7521 58.7608 54.4941 59.0187C54.2362 59.2767 54.0878 59.6345 54.0878 59.9992C54.0878 60.3653 54.2362 60.7216 54.4941 60.9796C54.7521 61.2375 55.1098 61.3859 55.4745 61.3859C55.8393 61.3859 56.197 61.2375 56.455 60.9796C56.7129 60.7216 56.8613 60.3653 56.8613 59.9992C56.8613 59.6345 56.7129 59.2767 56.455 59.0187Z" fill="black"/>
<path d="M28.7331 30.6368C28.4752 30.3788 28.1174 30.2305 27.7527 30.2305C27.388 30.2305 27.0302 30.3788 26.7723 30.6368C26.5143 30.8947 26.366 31.2525 26.366 31.6172C26.366 31.9819 26.5143 32.3397 26.7723 32.5976C27.0302 32.8555 27.388 33.0039 27.7527 33.0039C28.1174 33.0039 28.4752 32.8555 28.7331 32.5976C28.991 32.3397 29.1394 31.9819 29.1394 31.6172C29.1394 31.2525 28.991 30.8947 28.7331 30.6368Z" fill="black"/>
</svg>
