<svg width="811" height="858" viewBox="0 0 811 858" fill="none" xmlns="http://www.w3.org/2000/svg">
<circle cx="338.5" cy="385.5" r="470" stroke="white" stroke-width="5"/>
<path d="M267.524 847.86C283.747 839.749 253.329 787.024 263.468 766.745C273.608 746.466 320.933 750.445 358.779 746.466C396.584 742.491 450.034 750.521 456.118 746.466C462.202 742.41 470.068 738.336 478.425 732.27C502.449 714.834 509.595 697.927 531.15 677.517C549.489 660.153 575.764 651.154 579.82 634.931C583.876 618.708 545.346 549.76 549.401 541.648C553.457 533.536 571.708 523.397 571.708 523.397C571.708 523.397 602.127 488.923 596.043 478.783C589.959 468.644 591.409 472.329 589.959 468.644C587.003 461.128 596.14 458.184 594.015 450.393C592.513 444.883 587.907 443.573 585.904 438.225C584.214 433.714 585.128 429.814 583.876 426.058C581.076 417.658 567.652 422.002 565.625 417.946C563.597 413.891 569.582 406.67 565.625 401.723C560.677 395.539 545.346 401.723 545.346 401.723L504.788 438.225C504.788 438.225 489.966 454.131 484.509 466.616C477.152 483.447 484.509 505.146 478.425 513.258C472.341 521.369 470.313 517.313 464.23 523.397C458.146 529.481 453.337 551.541 437.867 559.899C427.891 565.289 429.755 563.955 409.477 572.067C389.198 580.178 372.974 588.29 372.974 588.29C372.974 588.29 358.414 595.026 348.64 594.373C338.367 593.687 333.896 587.975 324.305 584.234C287.415 569.845 233.05 561.927 226.966 555.843C220.882 549.76 212.771 513.258 212.771 513.258C212.771 513.258 206.687 499.062 196.547 490.951C186.408 482.839 143.822 482.839 131.655 474.727C119.487 466.616 172.213 454.448 174.241 436.197C176.268 417.946 184.38 383.472 190.464 375.361C196.547 367.249 182.352 355.082 196.547 355.082C210.743 355.082 196.547 326.691 188.436 318.579C180.324 310.468 196.547 271.938 196.547 271.938C196.547 271.938 200.603 241.519 170.185 198.933C139.766 156.348 109.348 140.124 60.6783 140.124C12.0088 140.124 -28.5491 166.487 -28.5491 166.487C-28.5491 166.487 -62.3115 196.178 -71.1351 225.296C-78.0252 248.033 -79.6102 270.901 -75.1908 294.245C-70.2387 320.402 -50.856 351.026 -50.856 351.026C-50.856 351.026 -42.3859 373.115 -50.856 381.444C-55.6806 386.188 -60.9957 381.444 -67.0792 387.528C-73.1627 393.612 -79.598 416.196 -91.414 432.142C-101.089 445.197 -121.832 462.56 -123.861 466.616" stroke="white" stroke-width="5"/>
<path d="M408.3 569.651C400.294 545.702 399.194 519.884 405.133 495.308C411.072 470.731 423.797 448.444 441.775 431.13C459.752 413.816 482.216 402.214 506.46 397.722C530.704 393.23 555.694 396.039 578.421 405.811C601.147 415.583 620.641 431.9 634.554 452.799C648.467 473.697 656.206 498.285 656.838 523.6C657.47 548.915 650.969 573.879 638.117 595.483C625.266 617.088 589.861 640.197 567.652 651.155" stroke="white" stroke-width="5"/>
<path d="M342.556 593.521C293.273 551.703 268.934 499.918 256.547 435.332C244.161 370.746 253.861 303.727 283.994 245.693C314.127 187.659 362.83 142.202 421.803 117.066C480.776 91.9306 546.372 88.6721 607.412 107.846C668.453 127.02 721.162 167.439 756.559 222.218C791.955 276.996 807.85 342.744 801.533 408.259C795.217 473.774 767.08 535.003 721.918 581.512C676.756 628.021 617.363 656.933 553.857 663.322" stroke="white" stroke-width="5"/>
<path d="M758.275 231.379H393.253C393.253 231.379 471.118 331.491 521.011 395.638M758.275 231.379C758.275 231.379 656.926 157.918 591.987 105.65C570.941 190.388 559.142 237.897 538.097 322.634M758.275 231.379L579.82 356.432M521.011 395.638C527.683 367.128 531.424 351.144 538.097 322.634M521.011 395.638C543.977 380.327 579.82 356.432 579.82 356.432M538.097 322.634C569.68 328.719 579.82 356.432 579.82 356.432" stroke="white" stroke-width="5"/>
</svg>
