<svg width="192" height="26" viewBox="0 0 192 26" fill="none" xmlns="http://www.w3.org/2000/svg">
<path d="M5.2 16.22C5.2 16.8867 5.22667 17.4133 5.28 17.8C5.33333 18.1867 5.43333 18.4867 5.58 18.7C5.74 18.9133 5.96 19.0533 6.24 19.12C6.53333 19.1867 6.91333 19.2267 7.38 19.24V20H0.9V19.24C1.36667 19.2267 1.74 19.1867 2.02 19.12C2.31333 19.04 2.54 18.9 2.7 18.7C2.86 18.5 2.96667 18.22 3.02 17.86C3.07333 17.4867 3.1 16.9867 3.1 16.36V8.24C3.1 7.68 3.07333 7.22 3.02 6.86C2.98 6.48667 2.88667 6.19333 2.74 5.98C2.60667 5.76667 2.40667 5.62 2.14 5.54C1.87333 5.44667 1.52667 5.38667 1.1 5.36V4.6H7.18V5.36C6.75333 5.37333 6.40667 5.42667 6.14 5.52C5.88667 5.61333 5.68667 5.77333 5.54 6C5.40667 6.21333 5.31333 6.51333 5.26 6.9C5.22 7.28667 5.2 7.78 5.2 8.38V16.22ZM9.64078 18.9C9.64078 18.5267 9.76745 18.2133 10.0208 17.96C10.2741 17.7067 10.5808 17.58 10.9408 17.58C11.3141 17.58 11.6274 17.7067 11.8808 17.96C12.1341 18.2133 12.2608 18.5267 12.2608 18.9C12.2608 19.26 12.1341 19.5667 11.8808 19.82C11.6274 20.0733 11.3141 20.2 10.9408 20.2C10.5808 20.2 10.2741 20.0733 10.0208 19.82C9.76745 19.5667 9.64078 19.26 9.64078 18.9ZM14.7538 15.3H15.4938C15.5871 15.9 15.7604 16.44 16.0138 16.92C16.2804 17.4 16.6071 17.8067 16.9938 18.14C17.3938 18.4733 17.8471 18.7333 18.3538 18.92C18.8738 19.0933 19.4338 19.18 20.0338 19.18C21.0204 19.18 21.8004 18.9467 22.3738 18.48C22.9471 18.0133 23.2338 17.38 23.2338 16.58C23.2338 16.2467 23.1738 15.94 23.0538 15.66C22.9471 15.38 22.7604 15.1133 22.4938 14.86C22.2271 14.5933 21.8671 14.3333 21.4138 14.08C20.9738 13.8267 20.4138 13.5533 19.7338 13.26C18.9071 12.9 18.2138 12.5533 17.6538 12.22C17.0938 11.8867 16.6471 11.54 16.3138 11.18C15.9804 10.82 15.7404 10.44 15.5938 10.04C15.4604 9.62667 15.3938 9.16 15.3938 8.64C15.3938 8.02667 15.5004 7.46 15.7138 6.94C15.9404 6.42 16.2538 5.97333 16.6538 5.6C17.0538 5.21333 17.5271 4.92 18.0738 4.72C18.6204 4.50667 19.2204 4.4 19.8738 4.4C20.4604 4.4 21.0071 4.49333 21.5138 4.68C22.0204 4.86667 22.5338 5.16667 23.0538 5.58L23.5738 4.68H24.0338L24.2538 8.66H23.5138C23.1938 7.56667 22.7271 6.75333 22.1138 6.22C21.5138 5.68667 20.7871 5.42 19.9338 5.42C19.1204 5.42 18.4738 5.62 17.9938 6.02C17.5138 6.42 17.2738 6.96 17.2738 7.64C17.2738 7.96 17.3271 8.25333 17.4338 8.52C17.5404 8.77333 17.7138 9.02 17.9538 9.26C18.1938 9.48667 18.5071 9.72 18.8938 9.96C19.2804 10.1867 19.7604 10.4267 20.3338 10.68C21.3204 11.12 22.1404 11.5333 22.7938 11.92C23.4471 12.2933 23.9671 12.6733 24.3538 13.06C24.7404 13.4333 25.0138 13.8333 25.1738 14.26C25.3338 14.6733 25.4138 15.14 25.4138 15.66C25.4138 16.3267 25.2804 16.94 25.0138 17.5C24.7471 18.06 24.3738 18.54 23.8938 18.94C23.4138 19.34 22.8404 19.6533 22.1738 19.88C21.5071 20.0933 20.7738 20.2 19.9738 20.2C19.2138 20.2 18.5271 20.0933 17.9138 19.88C17.3138 19.6667 16.7004 19.3067 16.0738 18.8L15.5138 19.78H15.0538L14.7538 15.3ZM27.8244 18.9C27.8244 18.5267 27.951 18.2133 28.2044 17.96C28.4577 17.7067 28.7644 17.58 29.1244 17.58C29.4977 17.58 29.811 17.7067 30.0644 17.96C30.3177 18.2133 30.4444 18.5267 30.4444 18.9C30.4444 19.26 30.3177 19.5667 30.0644 19.82C29.811 20.0733 29.4977 20.2 29.1244 20.2C28.7644 20.2 28.4577 20.0733 28.2044 19.82C27.951 19.5667 27.8244 19.26 27.8244 18.9ZM45.3195 3.94C44.7062 4.40667 44.2662 4.85333 43.9995 5.28C43.7462 5.69333 43.6195 6.15333 43.6195 6.66C43.7929 6.55333 43.9929 6.5 44.2195 6.5C44.5262 6.5 44.7729 6.60667 44.9595 6.82C45.1595 7.02 45.2595 7.28 45.2595 7.6C45.2595 7.96 45.1329 8.25333 44.8795 8.48C44.6395 8.70667 44.3129 8.82 43.8995 8.82C42.9529 8.82 42.4795 8.19333 42.4795 6.94C42.4795 6.60667 42.5195 6.3 42.5995 6.02C42.6795 5.72667 42.8062 5.44667 42.9795 5.18C43.1662 4.9 43.4129 4.62 43.7195 4.34C44.0262 4.04667 44.4062 3.73333 44.8595 3.4L45.3195 3.94ZM41.4795 3.94C40.8662 4.40667 40.4262 4.85333 40.1595 5.28C39.9062 5.69333 39.7795 6.15333 39.7795 6.66C39.9529 6.55333 40.1529 6.5 40.3795 6.5C40.6862 6.5 40.9329 6.60667 41.1195 6.82C41.3195 7.02 41.4195 7.28 41.4195 7.6C41.4195 7.96 41.2929 8.25333 41.0395 8.48C40.7995 8.70667 40.4729 8.82 40.0595 8.82C39.1129 8.82 38.6395 8.19333 38.6395 6.94C38.6395 6.60667 38.6795 6.3 38.7595 6.02C38.8395 5.72667 38.9662 5.44667 39.1395 5.18C39.3262 4.9 39.5729 4.62 39.8795 4.34C40.1862 4.04667 40.5662 3.73333 41.0195 3.4L41.4795 3.94ZM51.7039 11.54C52.4239 11.54 53.0239 11.5 53.5039 11.42C53.9972 11.3267 54.3839 11.1867 54.6639 11C54.9572 10.8133 55.1639 10.5733 55.2839 10.28C55.4172 9.98667 55.4839 9.64 55.4839 9.24H56.1839V14.7H55.4839C55.4839 14.3 55.4239 13.9533 55.3039 13.66C55.1972 13.3667 54.9972 13.1267 54.7039 12.94C54.4239 12.74 54.0372 12.5933 53.5439 12.5C53.0639 12.3933 52.4506 12.34 51.7039 12.34V16.86C51.7039 17.3 51.7572 17.6667 51.8639 17.96C51.9706 18.24 52.1506 18.4733 52.4039 18.66C52.6706 18.8333 53.0172 18.96 53.4439 19.04C53.8706 19.1067 54.3972 19.14 55.0239 19.14C55.7306 19.14 56.3306 19.0933 56.8239 19C57.3172 18.8933 57.7306 18.72 58.0639 18.48C58.3972 18.24 58.6639 17.9267 58.8639 17.54C59.0639 17.14 59.2306 16.6467 59.3639 16.06H60.1239L59.8239 20H47.4039V19.24C47.8706 19.2267 48.2439 19.1867 48.5239 19.12C48.8172 19.0533 49.0439 18.94 49.2039 18.78C49.3639 18.62 49.4706 18.3933 49.5239 18.1C49.5772 17.8067 49.6039 17.4267 49.6039 16.96V7.64C49.6039 7.17333 49.5772 6.8 49.5239 6.52C49.4839 6.22667 49.3906 6 49.2439 5.84C49.1106 5.66667 48.9106 5.55333 48.6439 5.5C48.3772 5.43333 48.0306 5.38667 47.6039 5.36V4.6H59.1639L59.3439 8.12H58.6439C58.5639 7.58667 58.4306 7.15333 58.2439 6.82C58.0706 6.47333 57.8239 6.2 57.5039 6C57.1972 5.8 56.8039 5.66 56.3239 5.58C55.8439 5.5 55.2639 5.46 54.5839 5.46H52.0439C51.8172 5.46 51.7039 5.57333 51.7039 5.8V11.54ZM65.3356 16.86C65.3356 17.4067 65.349 17.84 65.3756 18.16C65.4023 18.4667 65.469 18.7067 65.5756 18.88C65.6956 19.04 65.8623 19.1467 66.0756 19.2C66.3023 19.2533 66.609 19.2933 66.9956 19.32V20H61.7556V19.32C62.129 19.2933 62.4223 19.2533 62.6356 19.2C62.8623 19.1467 63.0356 19.04 63.1556 18.88C63.2756 18.72 63.349 18.4933 63.3756 18.2C63.4156 17.9067 63.4356 17.5067 63.4356 17V14.34C63.4356 12.7533 63.3956 11.7867 63.3156 11.44C63.2756 11.2667 63.2223 11.1267 63.1556 11.02C63.1023 10.9 63.0156 10.8133 62.8956 10.76C62.7756 10.6933 62.6223 10.6533 62.4356 10.64C62.249 10.6133 62.009 10.6 61.7156 10.6V9.96L64.9156 9.2L65.1556 11.18H65.2356C65.7423 10.5533 66.3356 10.0667 67.0156 9.72C67.6956 9.37333 68.4356 9.2 69.2356 9.2C69.849 9.2 70.409 9.3 70.9156 9.5C71.4223 9.7 71.809 9.97333 72.0756 10.32C72.3023 10.6267 72.4623 11.0267 72.5556 11.52C72.649 12 72.6956 12.6667 72.6956 13.52V16.86C72.6956 17.4067 72.709 17.84 72.7356 18.16C72.7756 18.4667 72.849 18.7067 72.9556 18.88C73.0623 19.04 73.2223 19.1467 73.4356 19.2C73.6623 19.2533 73.9556 19.2933 74.3156 19.32V20H69.1356V19.32C69.509 19.3067 69.8023 19.2733 70.0156 19.22C70.2423 19.1533 70.409 19.04 70.5156 18.88C70.6356 18.72 70.709 18.4933 70.7356 18.2C70.7756 17.8933 70.7956 17.4933 70.7956 17V14.36C70.7956 13.6 70.7556 12.96 70.6756 12.44C70.5956 11.92 70.4623 11.5 70.2756 11.18C70.1023 10.86 69.869 10.6333 69.5756 10.5C69.2823 10.3533 68.929 10.28 68.5156 10.28C67.9156 10.28 67.3623 10.44 66.8556 10.76C66.3623 11.0667 65.9756 11.4933 65.6956 12.04C65.629 12.1733 65.569 12.3 65.5156 12.42C65.4756 12.54 65.4423 12.68 65.4156 12.84C65.389 13 65.369 13.1867 65.3556 13.4C65.3423 13.6 65.3356 13.86 65.3356 14.18V16.86ZM79.2447 16.82C79.2447 17.3667 79.258 17.8 79.2847 18.12C79.3114 18.44 79.378 18.6867 79.4847 18.86C79.6047 19.02 79.7714 19.1267 79.9847 19.18C80.198 19.2333 80.498 19.2733 80.8847 19.3V20H75.5647V19.3C75.9514 19.2867 76.258 19.2533 76.4847 19.2C76.7114 19.1333 76.8847 19.02 77.0047 18.86C77.1247 18.7 77.198 18.4733 77.2247 18.18C77.2647 17.8733 77.2847 17.4667 77.2847 16.96V14.62C77.2847 13.7133 77.2714 13.0067 77.2447 12.5C77.2314 11.9933 77.1647 11.62 77.0447 11.38C76.938 11.14 76.7647 11 76.5247 10.96C76.2847 10.9067 75.9514 10.88 75.5247 10.88V10.18L79.0247 9.42L79.3047 11.9H79.3847C79.558 11.5 79.7714 11.1333 80.0247 10.8C80.2914 10.4667 80.578 10.1867 80.8847 9.96C81.1914 9.72 81.5114 9.53333 81.8447 9.4C82.178 9.26667 82.518 9.2 82.8647 9.2C83.2914 9.2 83.6247 9.30667 83.8647 9.52C84.118 9.72 84.2447 9.99333 84.2447 10.34C84.2447 10.66 84.1447 10.9133 83.9447 11.1C83.7447 11.2733 83.458 11.36 83.0847 11.36C82.8714 11.36 82.6914 11.3333 82.5447 11.28C82.398 11.2267 82.2647 11.1733 82.1447 11.12C82.038 11.0533 81.9314 10.9933 81.8247 10.94C81.7314 10.8867 81.6247 10.86 81.5047 10.86C81.1447 10.86 80.7847 11.0933 80.4247 11.56C80.0647 12.0133 79.7847 12.5933 79.5847 13.3C79.478 13.6867 79.3914 14.1267 79.3247 14.62C79.2714 15.1 79.2447 15.6067 79.2447 16.14V16.82ZM88.8959 16.82C88.8959 17.34 88.9159 17.76 88.9559 18.08C89.0093 18.3867 89.1026 18.6333 89.2359 18.82C89.3693 18.9933 89.5559 19.1133 89.7959 19.18C90.0359 19.2467 90.3559 19.2867 90.7559 19.3V20H85.0159V19.3C85.4159 19.2867 85.7426 19.2467 85.9959 19.18C86.2493 19.1 86.4426 18.98 86.5759 18.82C86.7226 18.6467 86.8159 18.4133 86.8559 18.12C86.9093 17.8133 86.9359 17.4267 86.9359 16.96V14.4C86.9359 13.6267 86.9226 12.9933 86.8959 12.5C86.8826 11.9933 86.8493 11.6467 86.7959 11.46C86.7293 11.1533 86.5759 10.9467 86.3359 10.84C86.0959 10.72 85.6426 10.66 84.9759 10.66V9.96L88.8959 9.2V16.82ZM86.5959 5.14C86.5959 4.79333 86.7159 4.5 86.9559 4.26C87.1959 4.02 87.4893 3.9 87.8359 3.9C88.1826 3.9 88.4759 4.02 88.7159 4.26C88.9559 4.5 89.0759 4.79333 89.0759 5.14C89.0759 5.48667 88.9559 5.78 88.7159 6.02C88.4759 6.26 88.1826 6.38 87.8359 6.38C87.4893 6.38 87.1959 6.26 86.9559 6.02C86.7159 5.78 86.5959 5.48667 86.5959 5.14ZM101.272 18.34C100.792 18.9267 100.172 19.3867 99.4123 19.72C98.6523 20.04 97.8323 20.2 96.9523 20.2C96.2457 20.2 95.5923 20.0733 94.9923 19.82C94.4057 19.5533 93.899 19.1867 93.4723 18.72C93.0457 18.24 92.7123 17.6667 92.4723 17C92.2457 16.3333 92.1323 15.5933 92.1323 14.78C92.1323 13.9267 92.2657 13.16 92.5323 12.48C92.799 11.7867 93.1723 11.2 93.6523 10.72C94.1457 10.2267 94.7323 9.85333 95.4123 9.6C96.1057 9.33333 96.8657 9.2 97.6923 9.2C98.2123 9.2 98.6857 9.24667 99.1123 9.34C99.539 9.42 99.9057 9.54 100.212 9.7C100.532 9.84667 100.779 10.0333 100.952 10.26C101.126 10.4733 101.212 10.7067 101.212 10.96C101.212 11.2267 101.126 11.4333 100.952 11.58C100.779 11.7267 100.539 11.8 100.232 11.8C99.9923 11.8 99.7923 11.7533 99.6323 11.66C99.4723 11.5533 99.2657 11.3267 99.0123 10.98C98.7457 10.6733 98.4857 10.46 98.2323 10.34C97.9923 10.2067 97.679 10.14 97.2923 10.14C96.3457 10.14 95.6257 10.5067 95.1323 11.24C94.6523 11.9733 94.4123 13.0533 94.4123 14.48C94.4123 16.0133 94.679 17.18 95.2123 17.98C95.759 18.7667 96.5523 19.16 97.5923 19.16C98.1523 19.16 98.679 19.0533 99.1723 18.84C99.6657 18.6133 100.166 18.2533 100.672 17.76L101.272 18.34ZM108.375 9.2C109.135 9.2 109.855 9.34 110.535 9.62C111.215 9.88667 111.808 10.26 112.315 10.74C112.835 11.22 113.242 11.7933 113.535 12.46C113.842 13.1133 113.995 13.8333 113.995 14.62C113.995 15.4333 113.842 16.18 113.535 16.86C113.242 17.54 112.835 18.1267 112.315 18.62C111.808 19.1133 111.215 19.5 110.535 19.78C109.855 20.06 109.135 20.2 108.375 20.2C107.628 20.2 106.915 20.0667 106.235 19.8C105.568 19.52 104.982 19.1333 104.475 18.64C103.968 18.1467 103.568 17.56 103.275 16.88C102.982 16.1867 102.835 15.4333 102.835 14.62C102.835 13.8333 102.982 13.1067 103.275 12.44C103.568 11.7733 103.968 11.2 104.475 10.72C104.982 10.24 105.568 9.86667 106.235 9.6C106.915 9.33333 107.628 9.2 108.375 9.2ZM108.375 10.16C107.882 10.16 107.428 10.2667 107.015 10.48C106.615 10.6933 106.268 11 105.975 11.4C105.695 11.7867 105.475 12.26 105.315 12.82C105.168 13.3667 105.095 13.9733 105.095 14.64C105.095 15.3333 105.168 15.96 105.315 16.52C105.475 17.08 105.695 17.56 105.975 17.96C106.268 18.3467 106.615 18.6467 107.015 18.86C107.415 19.0733 107.868 19.18 108.375 19.18C108.882 19.18 109.342 19.0733 109.755 18.86C110.168 18.6467 110.522 18.34 110.815 17.94C111.108 17.54 111.335 17.06 111.495 16.5C111.655 15.94 111.735 15.32 111.735 14.64C111.735 13.9733 111.655 13.3667 111.495 12.82C111.335 12.2733 111.108 11.8067 110.815 11.42C110.522 11.02 110.168 10.7133 109.755 10.5C109.342 10.2733 108.882 10.16 108.375 10.16ZM125.903 16.82C125.903 17.3267 125.93 17.74 125.983 18.06C126.05 18.3667 126.183 18.6067 126.383 18.78C126.583 18.94 126.863 19.0533 127.223 19.12C127.596 19.1867 128.083 19.2267 128.683 19.24V20H121.603V19.24C122.07 19.2267 122.443 19.1867 122.723 19.12C123.016 19.0533 123.243 18.94 123.403 18.78C123.563 18.62 123.67 18.3933 123.723 18.1C123.776 17.8067 123.803 17.4267 123.803 16.96V7.64C123.803 7.17333 123.776 6.8 123.723 6.52C123.683 6.22667 123.59 6 123.443 5.84C123.31 5.66667 123.11 5.55333 122.843 5.5C122.576 5.43333 122.23 5.38667 121.803 5.36V4.6H133.363L133.583 8.42H132.883C132.803 7.84667 132.676 7.38 132.503 7.02C132.33 6.64667 132.083 6.35333 131.763 6.14C131.456 5.92667 131.063 5.78 130.583 5.7C130.103 5.60667 129.503 5.56 128.783 5.56H126.243C126.016 5.56 125.903 5.67333 125.903 5.9V11.94C126.543 11.94 127.09 11.9067 127.543 11.84C128.01 11.76 128.39 11.6267 128.683 11.44C128.99 11.2533 129.223 11 129.383 10.68C129.543 10.36 129.643 9.94667 129.683 9.44H130.383V15.3H129.683C129.616 14.7933 129.51 14.3733 129.363 14.04C129.216 13.7067 128.996 13.4467 128.703 13.26C128.423 13.0733 128.056 12.94 127.603 12.86C127.15 12.78 126.583 12.74 125.903 12.74V16.82ZM143.721 18.14C142.588 19.5133 141.181 20.2 139.501 20.2C138.715 20.2 138.001 20.0733 137.361 19.82C136.721 19.5533 136.168 19.1867 135.701 18.72C135.248 18.24 134.895 17.6733 134.641 17.02C134.388 16.3533 134.261 15.62 134.261 14.82C134.261 14.0067 134.395 13.2533 134.661 12.56C134.928 11.8667 135.301 11.2733 135.781 10.78C136.275 10.2867 136.855 9.9 137.521 9.62C138.201 9.34 138.941 9.2 139.741 9.2C141.035 9.2 142.035 9.55333 142.741 10.26C143.448 10.9533 143.801 11.9533 143.801 13.26C143.801 13.4467 143.761 13.56 143.681 13.6C143.615 13.64 143.448 13.66 143.181 13.66H136.601C136.575 13.7667 136.555 13.9 136.541 14.06C136.528 14.2067 136.521 14.3733 136.521 14.56C136.521 15.2533 136.601 15.8867 136.761 16.46C136.935 17.02 137.175 17.5 137.481 17.9C137.801 18.3 138.175 18.6133 138.601 18.84C139.041 19.0533 139.528 19.16 140.061 19.16C140.621 19.16 141.141 19.04 141.621 18.8C142.101 18.5467 142.595 18.14 143.101 17.58L143.721 18.14ZM140.421 12.74C140.688 12.74 140.901 12.7333 141.061 12.72C141.221 12.7067 141.341 12.68 141.421 12.64C141.501 12.6 141.555 12.5467 141.581 12.48C141.608 12.4 141.621 12.3 141.621 12.18C141.621 11.5667 141.421 11.08 141.021 10.72C140.635 10.3467 140.101 10.16 139.421 10.16C137.981 10.16 137.088 11.02 136.741 12.74H140.421ZM149.186 16.82C149.186 17.3667 149.199 17.8 149.226 18.12C149.253 18.44 149.319 18.6867 149.426 18.86C149.546 19.02 149.713 19.1267 149.926 19.18C150.139 19.2333 150.439 19.2733 150.826 19.3V20H145.506V19.3C145.893 19.2867 146.199 19.2533 146.426 19.2C146.653 19.1333 146.826 19.02 146.946 18.86C147.066 18.7 147.139 18.4733 147.166 18.18C147.206 17.8733 147.226 17.4667 147.226 16.96V14.62C147.226 13.7133 147.213 13.0067 147.186 12.5C147.173 11.9933 147.106 11.62 146.986 11.38C146.879 11.14 146.706 11 146.466 10.96C146.226 10.9067 145.893 10.88 145.466 10.88V10.18L148.966 9.42L149.246 11.9H149.326C149.499 11.5 149.713 11.1333 149.966 10.8C150.233 10.4667 150.519 10.1867 150.826 9.96C151.133 9.72 151.453 9.53333 151.786 9.4C152.119 9.26667 152.459 9.2 152.806 9.2C153.233 9.2 153.566 9.30667 153.806 9.52C154.059 9.72 154.186 9.99333 154.186 10.34C154.186 10.66 154.086 10.9133 153.886 11.1C153.686 11.2733 153.399 11.36 153.026 11.36C152.813 11.36 152.633 11.3333 152.486 11.28C152.339 11.2267 152.206 11.1733 152.086 11.12C151.979 11.0533 151.873 10.9933 151.766 10.94C151.673 10.8867 151.566 10.86 151.446 10.86C151.086 10.86 150.726 11.0933 150.366 11.56C150.006 12.0133 149.726 12.5933 149.526 13.3C149.419 13.6867 149.333 14.1267 149.266 14.62C149.213 15.1 149.186 15.6067 149.186 16.14V16.82ZM158.697 16.8C158.697 17.36 158.711 17.8 158.737 18.12C158.764 18.44 158.831 18.6867 158.937 18.86C159.057 19.02 159.224 19.1267 159.437 19.18C159.651 19.2333 159.951 19.2733 160.337 19.3V20H155.017V19.3C155.404 19.2733 155.711 19.2333 155.937 19.18C156.164 19.1267 156.337 19.02 156.457 18.86C156.577 18.7 156.651 18.4733 156.677 18.18C156.717 17.8733 156.737 17.4667 156.737 16.96V14.4C156.737 13.64 156.724 13.0067 156.697 12.5C156.684 11.9933 156.651 11.6467 156.597 11.46C156.557 11.2867 156.511 11.1533 156.457 11.06C156.404 10.9533 156.317 10.8733 156.197 10.82C156.077 10.7533 155.917 10.7133 155.717 10.7C155.531 10.6733 155.284 10.66 154.977 10.66V9.96L158.237 9.2L158.497 11.2H158.597C159.197 10.52 159.824 10.02 160.477 9.7C161.144 9.36667 161.877 9.2 162.677 9.2C163.517 9.2 164.224 9.37333 164.797 9.72C165.371 10.0533 165.771 10.54 165.997 11.18H166.077C166.571 10.5533 167.171 10.0667 167.877 9.72C168.584 9.37333 169.337 9.2 170.137 9.2C170.764 9.2 171.331 9.30667 171.837 9.52C172.357 9.72 172.751 10 173.017 10.36C173.257 10.6667 173.424 11.0733 173.517 11.58C173.624 12.0733 173.677 12.7533 173.677 13.62V16.8C173.677 17.3467 173.691 17.78 173.717 18.1C173.757 18.42 173.831 18.6667 173.937 18.84C174.044 19.0133 174.204 19.1267 174.417 19.18C174.644 19.2333 174.951 19.2733 175.337 19.3V20H170.017V19.3C170.391 19.2867 170.691 19.2533 170.917 19.2C171.144 19.1333 171.317 19.02 171.437 18.86C171.557 18.6867 171.631 18.4533 171.657 18.16C171.697 17.8667 171.717 17.4667 171.717 16.96V14.44C171.717 13.68 171.677 13.04 171.597 12.52C171.517 11.9867 171.384 11.56 171.197 11.24C171.011 10.9067 170.764 10.6667 170.457 10.52C170.164 10.3733 169.804 10.3 169.377 10.3C168.791 10.3 168.237 10.4667 167.717 10.8C167.211 11.12 166.811 11.5533 166.517 12.1C166.451 12.2333 166.391 12.3667 166.337 12.5C166.297 12.62 166.264 12.76 166.237 12.92C166.211 13.0667 166.191 13.2467 166.177 13.46C166.177 13.6733 166.177 13.94 166.177 14.26V16.8C166.177 17.3467 166.191 17.78 166.217 18.1C166.244 18.42 166.311 18.6667 166.417 18.84C166.537 19.0133 166.711 19.1267 166.937 19.18C167.164 19.2333 167.471 19.2733 167.857 19.3V20H162.537V19.3C162.911 19.2733 163.211 19.2333 163.437 19.18C163.664 19.1267 163.831 19.02 163.937 18.86C164.057 18.7 164.131 18.4733 164.157 18.18C164.197 17.8733 164.217 17.4667 164.217 16.96V14.44C164.217 13.6667 164.177 13.02 164.097 12.5C164.017 11.9667 163.884 11.54 163.697 11.22C163.524 10.8867 163.291 10.6533 162.997 10.52C162.704 10.3733 162.344 10.3 161.917 10.3C161.317 10.3 160.751 10.4667 160.217 10.8C159.697 11.12 159.304 11.5533 159.037 12.1C158.971 12.2333 158.911 12.3667 158.857 12.5C158.817 12.62 158.784 12.76 158.757 12.92C158.731 13.0667 158.711 13.2467 158.697 13.46C158.697 13.6733 158.697 13.94 158.697 14.26V16.8ZM180.302 16.82C180.302 17.34 180.322 17.76 180.362 18.08C180.416 18.3867 180.509 18.6333 180.642 18.82C180.776 18.9933 180.962 19.1133 181.202 19.18C181.442 19.2467 181.762 19.2867 182.162 19.3V20H176.422V19.3C176.822 19.2867 177.149 19.2467 177.402 19.18C177.656 19.1 177.849 18.98 177.982 18.82C178.129 18.6467 178.222 18.4133 178.262 18.12C178.316 17.8133 178.342 17.4267 178.342 16.96V14.4C178.342 13.6267 178.329 12.9933 178.302 12.5C178.289 11.9933 178.256 11.6467 178.202 11.46C178.136 11.1533 177.982 10.9467 177.742 10.84C177.502 10.72 177.049 10.66 176.382 10.66V9.96L180.302 9.2V16.82ZM178.002 5.14C178.002 4.79333 178.122 4.5 178.362 4.26C178.602 4.02 178.896 3.9 179.242 3.9C179.589 3.9 179.882 4.02 180.122 4.26C180.362 4.5 180.482 4.79333 180.482 5.14C180.482 5.48667 180.362 5.78 180.122 6.02C179.882 6.26 179.589 6.38 179.242 6.38C178.896 6.38 178.602 6.26 178.362 6.02C178.122 5.78 178.002 5.48667 178.002 5.14ZM183.839 8.28C184.452 7.81333 184.885 7.37333 185.139 6.96C185.405 6.53333 185.539 6.06667 185.539 5.56C185.365 5.66667 185.165 5.72 184.939 5.72C184.632 5.72 184.379 5.62 184.179 5.42C183.992 5.20667 183.899 4.94 183.899 4.62C183.899 4.26 184.019 3.96667 184.259 3.74C184.512 3.51333 184.845 3.4 185.259 3.4C186.205 3.4 186.679 4.02667 186.679 5.28C186.679 5.62667 186.639 5.94 186.559 6.22C186.479 6.5 186.345 6.78 186.159 7.06C185.985 7.32667 185.745 7.60667 185.439 7.9C185.132 8.18 184.752 8.48667 184.299 8.82L183.839 8.28ZM187.679 8.28C188.292 7.81333 188.725 7.37333 188.979 6.96C189.245 6.53333 189.379 6.06667 189.379 5.56C189.205 5.66667 189.005 5.72 188.779 5.72C188.472 5.72 188.219 5.62 188.019 5.42C187.832 5.20667 187.739 4.94 187.739 4.62C187.739 4.26 187.859 3.96667 188.099 3.74C188.352 3.51333 188.685 3.4 189.099 3.4C190.045 3.4 190.519 4.02667 190.519 5.28C190.519 5.62667 190.479 5.94 190.399 6.22C190.319 6.5 190.185 6.78 189.999 7.06C189.825 7.32667 189.585 7.60667 189.279 7.9C188.972 8.18 188.592 8.48667 188.139 8.82L187.679 8.28Z" fill="black"/>
<path d="M143 25L184 25" stroke="#011A9B" stroke-width="2"/>
</svg>
