<svg width="137" height="26" viewBox="0 0 137 26" fill="none" xmlns="http://www.w3.org/2000/svg">
<path d="M5.2 11.54C5.92 11.54 6.52 11.5 7 11.42C7.49333 11.3267 7.88 11.1867 8.16 11C8.45333 10.8133 8.66 10.5733 8.78 10.28C8.91333 9.98667 8.98 9.64 8.98 9.24H9.68V14.7H8.98C8.98 14.3 8.92 13.9533 8.8 13.66C8.69333 13.3667 8.49333 13.1267 8.2 12.94C7.92 12.74 7.53333 12.5933 7.04 12.5C6.56 12.3933 5.94667 12.34 5.2 12.34V16.86C5.2 17.3 5.25333 17.6667 5.36 17.96C5.46667 18.24 5.64667 18.4733 5.9 18.66C6.16667 18.8333 6.51333 18.96 6.94 19.04C7.36667 19.1067 7.89333 19.14 8.52 19.14C9.22667 19.14 9.82667 19.0933 10.32 19C10.8133 18.8933 11.2267 18.72 11.56 18.48C11.8933 18.24 12.16 17.9267 12.36 17.54C12.56 17.14 12.7267 16.6467 12.86 16.06H13.62L13.32 20H0.9V19.24C1.36667 19.2267 1.74 19.1867 2.02 19.12C2.31333 19.0533 2.54 18.94 2.7 18.78C2.86 18.62 2.96667 18.3933 3.02 18.1C3.07333 17.8067 3.1 17.4267 3.1 16.96V7.64C3.1 7.17333 3.07333 6.8 3.02 6.52C2.98 6.22667 2.88667 6 2.74 5.84C2.60667 5.66667 2.40667 5.55333 2.14 5.5C1.87333 5.43333 1.52667 5.38667 1.1 5.36V4.6H12.66L12.84 8.12H12.14C12.06 7.58667 11.9267 7.15333 11.74 6.82C11.5667 6.47333 11.32 6.2 11 6C10.6933 5.8 10.3 5.66 9.82 5.58C9.34 5.5 8.76 5.46 8.08 5.46H5.54C5.31333 5.46 5.2 5.57333 5.2 5.8V11.54ZM18.8317 16.86C18.8317 17.4067 18.8451 17.84 18.8717 18.16C18.8984 18.4667 18.9651 18.7067 19.0717 18.88C19.1917 19.04 19.3584 19.1467 19.5717 19.2C19.7984 19.2533 20.1051 19.2933 20.4917 19.32V20H15.2517V19.32C15.6251 19.2933 15.9184 19.2533 16.1317 19.2C16.3584 19.1467 16.5317 19.04 16.6517 18.88C16.7717 18.72 16.8451 18.4933 16.8717 18.2C16.9117 17.9067 16.9317 17.5067 16.9317 17V14.34C16.9317 12.7533 16.8917 11.7867 16.8117 11.44C16.7717 11.2667 16.7184 11.1267 16.6517 11.02C16.5984 10.9 16.5117 10.8133 16.3917 10.76C16.2717 10.6933 16.1184 10.6533 15.9317 10.64C15.7451 10.6133 15.5051 10.6 15.2117 10.6V9.96L18.4117 9.2L18.6517 11.18H18.7317C19.2384 10.5533 19.8317 10.0667 20.5117 9.72C21.1917 9.37333 21.9317 9.2 22.7317 9.2C23.3451 9.2 23.9051 9.3 24.4117 9.5C24.9184 9.7 25.3051 9.97333 25.5717 10.32C25.7984 10.6267 25.9584 11.0267 26.0517 11.52C26.1451 12 26.1917 12.6667 26.1917 13.52V16.86C26.1917 17.4067 26.2051 17.84 26.2317 18.16C26.2717 18.4667 26.3451 18.7067 26.4517 18.88C26.5584 19.04 26.7184 19.1467 26.9317 19.2C27.1584 19.2533 27.4517 19.2933 27.8117 19.32V20H22.6317V19.32C23.0051 19.3067 23.2984 19.2733 23.5117 19.22C23.7384 19.1533 23.9051 19.04 24.0117 18.88C24.1317 18.72 24.2051 18.4933 24.2317 18.2C24.2717 17.8933 24.2917 17.4933 24.2917 17V14.36C24.2917 13.6 24.2517 12.96 24.1717 12.44C24.0917 11.92 23.9584 11.5 23.7717 11.18C23.5984 10.86 23.3651 10.6333 23.0717 10.5C22.7784 10.3533 22.4251 10.28 22.0117 10.28C21.4117 10.28 20.8584 10.44 20.3517 10.76C19.8584 11.0667 19.4717 11.4933 19.1917 12.04C19.1251 12.1733 19.0651 12.3 19.0117 12.42C18.9717 12.54 18.9384 12.68 18.9117 12.84C18.8851 13 18.8651 13.1867 18.8517 13.4C18.8384 13.6 18.8317 13.86 18.8317 14.18V16.86ZM32.7408 16.82C32.7408 17.3667 32.7541 17.8 32.7808 18.12C32.8074 18.44 32.8741 18.6867 32.9808 18.86C33.1008 19.02 33.2674 19.1267 33.4808 19.18C33.6941 19.2333 33.9941 19.2733 34.3808 19.3V20H29.0608V19.3C29.4474 19.2867 29.7541 19.2533 29.9808 19.2C30.2074 19.1333 30.3808 19.02 30.5008 18.86C30.6208 18.7 30.6941 18.4733 30.7208 18.18C30.7608 17.8733 30.7808 17.4667 30.7808 16.96V14.62C30.7808 13.7133 30.7674 13.0067 30.7408 12.5C30.7274 11.9933 30.6608 11.62 30.5408 11.38C30.4341 11.14 30.2608 11 30.0208 10.96C29.7808 10.9067 29.4474 10.88 29.0208 10.88V10.18L32.5208 9.42L32.8008 11.9H32.8808C33.0541 11.5 33.2674 11.1333 33.5208 10.8C33.7874 10.4667 34.0741 10.1867 34.3808 9.96C34.6874 9.72 35.0074 9.53333 35.3408 9.4C35.6741 9.26667 36.0141 9.2 36.3608 9.2C36.7874 9.2 37.1208 9.30667 37.3608 9.52C37.6141 9.72 37.7408 9.99333 37.7408 10.34C37.7408 10.66 37.6408 10.9133 37.4408 11.1C37.2408 11.2733 36.9541 11.36 36.5808 11.36C36.3674 11.36 36.1874 11.3333 36.0408 11.28C35.8941 11.2267 35.7608 11.1733 35.6408 11.12C35.5341 11.0533 35.4274 10.9933 35.3208 10.94C35.2274 10.8867 35.1208 10.86 35.0008 10.86C34.6408 10.86 34.2808 11.0933 33.9208 11.56C33.5608 12.0133 33.2808 12.5933 33.0808 13.3C32.9741 13.6867 32.8874 14.1267 32.8208 14.62C32.7674 15.1 32.7408 15.6067 32.7408 16.14V16.82ZM42.392 16.82C42.392 17.34 42.412 17.76 42.452 18.08C42.5054 18.3867 42.5987 18.6333 42.732 18.82C42.8654 18.9933 43.052 19.1133 43.292 19.18C43.532 19.2467 43.852 19.2867 44.252 19.3V20H38.512V19.3C38.912 19.2867 39.2387 19.2467 39.492 19.18C39.7454 19.1 39.9387 18.98 40.072 18.82C40.2187 18.6467 40.312 18.4133 40.352 18.12C40.4054 17.8133 40.432 17.4267 40.432 16.96V14.4C40.432 13.6267 40.4187 12.9933 40.392 12.5C40.3787 11.9933 40.3454 11.6467 40.292 11.46C40.2254 11.1533 40.072 10.9467 39.832 10.84C39.592 10.72 39.1387 10.66 38.472 10.66V9.96L42.392 9.2V16.82ZM40.092 5.14C40.092 4.79333 40.212 4.5 40.452 4.26C40.692 4.02 40.9854 3.9 41.332 3.9C41.6787 3.9 41.972 4.02 42.212 4.26C42.452 4.5 42.572 4.79333 42.572 5.14C42.572 5.48667 42.452 5.78 42.212 6.02C41.972 6.26 41.6787 6.38 41.332 6.38C40.9854 6.38 40.692 6.26 40.452 6.02C40.212 5.78 40.092 5.48667 40.092 5.14ZM54.7684 18.34C54.2884 18.9267 53.6684 19.3867 52.9084 19.72C52.1484 20.04 51.3284 20.2 50.4484 20.2C49.7418 20.2 49.0884 20.0733 48.4884 19.82C47.9018 19.5533 47.3951 19.1867 46.9684 18.72C46.5418 18.24 46.2084 17.6667 45.9684 17C45.7418 16.3333 45.6284 15.5933 45.6284 14.78C45.6284 13.9267 45.7618 13.16 46.0284 12.48C46.2951 11.7867 46.6684 11.2 47.1484 10.72C47.6418 10.2267 48.2284 9.85333 48.9084 9.6C49.6018 9.33333 50.3618 9.2 51.1884 9.2C51.7084 9.2 52.1818 9.24667 52.6084 9.34C53.0351 9.42 53.4018 9.54 53.7084 9.7C54.0284 9.84667 54.2751 10.0333 54.4484 10.26C54.6218 10.4733 54.7084 10.7067 54.7084 10.96C54.7084 11.2267 54.6218 11.4333 54.4484 11.58C54.2751 11.7267 54.0351 11.8 53.7284 11.8C53.4884 11.8 53.2884 11.7533 53.1284 11.66C52.9684 11.5533 52.7618 11.3267 52.5084 10.98C52.2418 10.6733 51.9818 10.46 51.7284 10.34C51.4884 10.2067 51.1751 10.14 50.7884 10.14C49.8418 10.14 49.1218 10.5067 48.6284 11.24C48.1484 11.9733 47.9084 13.0533 47.9084 14.48C47.9084 16.0133 48.1751 17.18 48.7084 17.98C49.2551 18.7667 50.0484 19.16 51.0884 19.16C51.6484 19.16 52.1751 19.0533 52.6684 18.84C53.1618 18.6133 53.6618 18.2533 54.1684 17.76L54.7684 18.34ZM61.8711 9.2C62.6311 9.2 63.3511 9.34 64.0311 9.62C64.7111 9.88667 65.3044 10.26 65.8111 10.74C66.3311 11.22 66.7378 11.7933 67.0311 12.46C67.3378 13.1133 67.4911 13.8333 67.4911 14.62C67.4911 15.4333 67.3378 16.18 67.0311 16.86C66.7378 17.54 66.3311 18.1267 65.8111 18.62C65.3044 19.1133 64.7111 19.5 64.0311 19.78C63.3511 20.06 62.6311 20.2 61.8711 20.2C61.1244 20.2 60.4111 20.0667 59.7311 19.8C59.0644 19.52 58.4778 19.1333 57.9711 18.64C57.4644 18.1467 57.0644 17.56 56.7711 16.88C56.4778 16.1867 56.3311 15.4333 56.3311 14.62C56.3311 13.8333 56.4778 13.1067 56.7711 12.44C57.0644 11.7733 57.4644 11.2 57.9711 10.72C58.4778 10.24 59.0644 9.86667 59.7311 9.6C60.4111 9.33333 61.1244 9.2 61.8711 9.2ZM61.8711 10.16C61.3778 10.16 60.9244 10.2667 60.5111 10.48C60.1111 10.6933 59.7644 11 59.4711 11.4C59.1911 11.7867 58.9711 12.26 58.8111 12.82C58.6644 13.3667 58.5911 13.9733 58.5911 14.64C58.5911 15.3333 58.6644 15.96 58.8111 16.52C58.9711 17.08 59.1911 17.56 59.4711 17.96C59.7644 18.3467 60.1111 18.6467 60.5111 18.86C60.9111 19.0733 61.3644 19.18 61.8711 19.18C62.3778 19.18 62.8378 19.0733 63.2511 18.86C63.6644 18.6467 64.0178 18.34 64.3111 17.94C64.6044 17.54 64.8311 17.06 64.9911 16.5C65.1511 15.94 65.2311 15.32 65.2311 14.64C65.2311 13.9733 65.1511 13.3667 64.9911 12.82C64.8311 12.2733 64.6044 11.8067 64.3111 11.42C64.0178 11.02 63.6644 10.7133 63.2511 10.5C62.8378 10.2733 62.3778 10.16 61.8711 10.16ZM79.3992 16.82C79.3992 17.3267 79.4259 17.74 79.4792 18.06C79.5459 18.3667 79.6792 18.6067 79.8792 18.78C80.0792 18.94 80.3592 19.0533 80.7192 19.12C81.0926 19.1867 81.5792 19.2267 82.1792 19.24V20H75.0992V19.24C75.5659 19.2267 75.9392 19.1867 76.2192 19.12C76.5126 19.0533 76.7392 18.94 76.8992 18.78C77.0592 18.62 77.1659 18.3933 77.2192 18.1C77.2726 17.8067 77.2992 17.4267 77.2992 16.96V7.64C77.2992 7.17333 77.2726 6.8 77.2192 6.52C77.1792 6.22667 77.0859 6 76.9392 5.84C76.8059 5.66667 76.6059 5.55333 76.3392 5.5C76.0726 5.43333 75.7259 5.38667 75.2992 5.36V4.6H86.8592L87.0792 8.42H86.3792C86.2992 7.84667 86.1726 7.38 85.9992 7.02C85.8259 6.64667 85.5792 6.35333 85.2592 6.14C84.9526 5.92667 84.5592 5.78 84.0792 5.7C83.5992 5.60667 82.9992 5.56 82.2792 5.56H79.7392C79.5126 5.56 79.3992 5.67333 79.3992 5.9V11.94C80.0392 11.94 80.5859 11.9067 81.0392 11.84C81.5059 11.76 81.8859 11.6267 82.1792 11.44C82.4859 11.2533 82.7192 11 82.8792 10.68C83.0392 10.36 83.1392 9.94667 83.1792 9.44H83.8792V15.3H83.1792C83.1126 14.7933 83.0059 14.3733 82.8592 14.04C82.7126 13.7067 82.4926 13.4467 82.1992 13.26C81.9192 13.0733 81.5526 12.94 81.0992 12.86C80.6459 12.78 80.0792 12.74 79.3992 12.74V16.82ZM97.2173 18.14C96.084 19.5133 94.6773 20.2 92.9973 20.2C92.2107 20.2 91.4973 20.0733 90.8573 19.82C90.2173 19.5533 89.664 19.1867 89.1973 18.72C88.744 18.24 88.3907 17.6733 88.1373 17.02C87.884 16.3533 87.7573 15.62 87.7573 14.82C87.7573 14.0067 87.8907 13.2533 88.1573 12.56C88.424 11.8667 88.7973 11.2733 89.2773 10.78C89.7707 10.2867 90.3507 9.9 91.0173 9.62C91.6973 9.34 92.4373 9.2 93.2373 9.2C94.5307 9.2 95.5307 9.55333 96.2373 10.26C96.944 10.9533 97.2973 11.9533 97.2973 13.26C97.2973 13.4467 97.2573 13.56 97.1773 13.6C97.1107 13.64 96.944 13.66 96.6773 13.66H90.0973C90.0707 13.7667 90.0507 13.9 90.0373 14.06C90.024 14.2067 90.0173 14.3733 90.0173 14.56C90.0173 15.2533 90.0973 15.8867 90.2573 16.46C90.4307 17.02 90.6707 17.5 90.9773 17.9C91.2973 18.3 91.6707 18.6133 92.0973 18.84C92.5373 19.0533 93.024 19.16 93.5573 19.16C94.1173 19.16 94.6373 19.04 95.1173 18.8C95.5973 18.5467 96.0907 18.14 96.5973 17.58L97.2173 18.14ZM93.9173 12.74C94.184 12.74 94.3973 12.7333 94.5573 12.72C94.7173 12.7067 94.8373 12.68 94.9173 12.64C94.9973 12.6 95.0507 12.5467 95.0773 12.48C95.104 12.4 95.1173 12.3 95.1173 12.18C95.1173 11.5667 94.9173 11.08 94.5173 10.72C94.1307 10.3467 93.5973 10.16 92.9173 10.16C91.4773 10.16 90.584 11.02 90.2373 12.74H93.9173ZM102.682 16.82C102.682 17.3667 102.696 17.8 102.722 18.12C102.749 18.44 102.816 18.6867 102.922 18.86C103.042 19.02 103.209 19.1267 103.422 19.18C103.636 19.2333 103.936 19.2733 104.322 19.3V20H99.0022V19.3C99.3889 19.2867 99.6955 19.2533 99.9222 19.2C100.149 19.1333 100.322 19.02 100.442 18.86C100.562 18.7 100.636 18.4733 100.662 18.18C100.702 17.8733 100.722 17.4667 100.722 16.96V14.62C100.722 13.7133 100.709 13.0067 100.682 12.5C100.669 11.9933 100.602 11.62 100.482 11.38C100.376 11.14 100.202 11 99.9622 10.96C99.7222 10.9067 99.3889 10.88 98.9622 10.88V10.18L102.462 9.42L102.742 11.9H102.822C102.996 11.5 103.209 11.1333 103.462 10.8C103.729 10.4667 104.016 10.1867 104.322 9.96C104.629 9.72 104.949 9.53333 105.282 9.4C105.616 9.26667 105.956 9.2 106.302 9.2C106.729 9.2 107.062 9.30667 107.302 9.52C107.556 9.72 107.682 9.99333 107.682 10.34C107.682 10.66 107.582 10.9133 107.382 11.1C107.182 11.2733 106.896 11.36 106.522 11.36C106.309 11.36 106.129 11.3333 105.982 11.28C105.836 11.2267 105.702 11.1733 105.582 11.12C105.476 11.0533 105.369 10.9933 105.262 10.94C105.169 10.8867 105.062 10.86 104.942 10.86C104.582 10.86 104.222 11.0933 103.862 11.56C103.502 12.0133 103.222 12.5933 103.022 13.3C102.916 13.6867 102.829 14.1267 102.762 14.62C102.709 15.1 102.682 15.6067 102.682 16.14V16.82ZM112.193 16.8C112.193 17.36 112.207 17.8 112.233 18.12C112.26 18.44 112.327 18.6867 112.433 18.86C112.553 19.02 112.72 19.1267 112.933 19.18C113.147 19.2333 113.447 19.2733 113.833 19.3V20H108.513V19.3C108.9 19.2733 109.207 19.2333 109.433 19.18C109.66 19.1267 109.833 19.02 109.953 18.86C110.073 18.7 110.147 18.4733 110.173 18.18C110.213 17.8733 110.233 17.4667 110.233 16.96V14.4C110.233 13.64 110.22 13.0067 110.193 12.5C110.18 11.9933 110.147 11.6467 110.093 11.46C110.053 11.2867 110.007 11.1533 109.953 11.06C109.9 10.9533 109.813 10.8733 109.693 10.82C109.573 10.7533 109.413 10.7133 109.213 10.7C109.027 10.6733 108.78 10.66 108.473 10.66V9.96L111.733 9.2L111.993 11.2H112.093C112.693 10.52 113.32 10.02 113.973 9.7C114.64 9.36667 115.373 9.2 116.173 9.2C117.013 9.2 117.72 9.37333 118.293 9.72C118.867 10.0533 119.267 10.54 119.493 11.18H119.573C120.067 10.5533 120.667 10.0667 121.373 9.72C122.08 9.37333 122.833 9.2 123.633 9.2C124.26 9.2 124.827 9.30667 125.333 9.52C125.853 9.72 126.247 10 126.513 10.36C126.753 10.6667 126.92 11.0733 127.013 11.58C127.12 12.0733 127.173 12.7533 127.173 13.62V16.8C127.173 17.3467 127.187 17.78 127.213 18.1C127.253 18.42 127.327 18.6667 127.433 18.84C127.54 19.0133 127.7 19.1267 127.913 19.18C128.14 19.2333 128.447 19.2733 128.833 19.3V20H123.513V19.3C123.887 19.2867 124.187 19.2533 124.413 19.2C124.64 19.1333 124.813 19.02 124.933 18.86C125.053 18.6867 125.127 18.4533 125.153 18.16C125.193 17.8667 125.213 17.4667 125.213 16.96V14.44C125.213 13.68 125.173 13.04 125.093 12.52C125.013 11.9867 124.88 11.56 124.693 11.24C124.507 10.9067 124.26 10.6667 123.953 10.52C123.66 10.3733 123.3 10.3 122.873 10.3C122.287 10.3 121.733 10.4667 121.213 10.8C120.707 11.12 120.307 11.5533 120.013 12.1C119.947 12.2333 119.887 12.3667 119.833 12.5C119.793 12.62 119.76 12.76 119.733 12.92C119.707 13.0667 119.687 13.2467 119.673 13.46C119.673 13.6733 119.673 13.94 119.673 14.26V16.8C119.673 17.3467 119.687 17.78 119.713 18.1C119.74 18.42 119.807 18.6667 119.913 18.84C120.033 19.0133 120.207 19.1267 120.433 19.18C120.66 19.2333 120.967 19.2733 121.353 19.3V20H116.033V19.3C116.407 19.2733 116.707 19.2333 116.933 19.18C117.16 19.1267 117.327 19.02 117.433 18.86C117.553 18.7 117.627 18.4733 117.653 18.18C117.693 17.8733 117.713 17.4667 117.713 16.96V14.44C117.713 13.6667 117.673 13.02 117.593 12.5C117.513 11.9667 117.38 11.54 117.193 11.22C117.02 10.8867 116.787 10.6533 116.493 10.52C116.2 10.3733 115.84 10.3 115.413 10.3C114.813 10.3 114.247 10.4667 113.713 10.8C113.193 11.12 112.8 11.5533 112.533 12.1C112.467 12.2333 112.407 12.3667 112.353 12.5C112.313 12.62 112.28 12.76 112.253 12.92C112.227 13.0667 112.207 13.2467 112.193 13.46C112.193 13.6733 112.193 13.94 112.193 14.26V16.8ZM133.798 16.82C133.798 17.34 133.818 17.76 133.858 18.08C133.912 18.3867 134.005 18.6333 134.138 18.82C134.272 18.9933 134.458 19.1133 134.698 19.18C134.938 19.2467 135.258 19.2867 135.658 19.3V20H129.918V19.3C130.318 19.2867 130.645 19.2467 130.898 19.18C131.152 19.1 131.345 18.98 131.478 18.82C131.625 18.6467 131.718 18.4133 131.758 18.12C131.812 17.8133 131.838 17.4267 131.838 16.96V14.4C131.838 13.6267 131.825 12.9933 131.798 12.5C131.785 11.9933 131.752 11.6467 131.698 11.46C131.632 11.1533 131.478 10.9467 131.238 10.84C130.998 10.72 130.545 10.66 129.878 10.66V9.96L133.798 9.2V16.82ZM131.498 5.14C131.498 4.79333 131.618 4.5 131.858 4.26C132.098 4.02 132.392 3.9 132.738 3.9C133.085 3.9 133.378 4.02 133.618 4.26C133.858 4.5 133.978 4.79333 133.978 5.14C133.978 5.48667 133.858 5.78 133.618 6.02C133.378 6.26 133.085 6.38 132.738 6.38C132.392 6.38 132.098 6.26 131.858 6.02C131.618 5.78 131.498 5.48667 131.498 5.14Z" fill="black"/>
<path d="M0 25H37" stroke="#011A9B" stroke-width="2"/>
</svg>
